<svg class="recharts-surface" width="460" height="266" viewBox="0 0 460 266"><title></title><desc></desc><defs><clipPath id="recharts1-clip"><rect x="0" y="0" height="236" width="440"></rect></clipPath></defs><g class="recharts-layer recharts-cartesian-axis recharts-xAxis xAxis"><line angle="0" orientation="bottom" width="440" height="30" x="0" y="236" class="recharts-cartesian-axis-line" stroke="white" fill="none" x1="0" y1="236" x2="440" y2="236"></line><g class="recharts-cartesian-axis-ticks"><g class="recharts-layer recharts-cartesian-axis-tick"><text orientation="bottom" width="440" height="30" x="15" y="244" stroke="none" fill="white" class="recharts-text recharts-cartesian-axis-tick-value" text-anchor="middle"><tspan x="15" dy="0.71em">Jul 8</tspan></text></g><g class="recharts-layer recharts-cartesian-axis-tick"><text orientation="bottom" width="440" height="30" x="75.71428571428572" y="244" stroke="none" fill="white" class="recharts-text recharts-cartesian-axis-tick-value" text-anchor="middle"><tspan x="75.71428571428572" dy="0.71em">Jul 9</tspan></text></g><g class="recharts-layer recharts-cartesian-axis-tick"><text orientation="bottom" width="440" height="30" x="136.42857142857144" y="244" stroke="none" fill="white" class="recharts-text recharts-cartesian-axis-tick-value" text-anchor="middle"><tspan x="136.42857142857144" dy="0.71em">Jul 10</tspan></text></g><g class="recharts-layer recharts-cartesian-axis-tick"><text orientation="bottom" width="440" height="30" x="197.14285714285714" y="244" stroke="none" fill="white" class="recharts-text recharts-cartesian-axis-tick-value" text-anchor="middle"><tspan x="197.14285714285714" dy="0.71em">Jul 11</tspan></text></g><g class="recharts-layer recharts-cartesian-axis-tick"><text orientation="bottom" width="440" height="30" x="257.8571428571429" y="244" stroke="none" fill="white" class="recharts-text recharts-cartesian-axis-tick-value" text-anchor="middle"><tspan x="257.8571428571429" dy="0.71em">Jul 12</tspan></text></g><g class="recharts-layer recharts-cartesian-axis-tick"><text orientation="bottom" width="440" height="30" x="318.57142857142856" y="244" stroke="none" fill="white" class="recharts-text recharts-cartesian-axis-tick-value" text-anchor="middle"><tspan x="318.57142857142856" dy="0.71em">Jul 13</tspan></text></g><g class="recharts-layer recharts-cartesian-axis-tick"><text orientation="bottom" width="440" height="30" x="379.2857142857143" y="244" stroke="none" fill="white" class="recharts-text recharts-cartesian-axis-tick-value" text-anchor="middle"><tspan x="379.2857142857143" dy="0.71em">Jul 14</tspan></text></g><g class="recharts-layer recharts-cartesian-axis-tick"><text orientation="bottom" width="440" height="30" x="440" y="244" stroke="none" fill="white" class="recharts-text recharts-cartesian-axis-tick-value" text-anchor="middle"><tspan x="440" dy="0.71em">Jul 15</tspan></text></g></g></g><g class="recharts-layer recharts-line"><path stroke="#f7931a" stroke-width="3" fill="none" width="440" height="236" class="recharts-curve recharts-line-curve" d="M15,203.353C15,203.353,56.13,227.679,75.714,225.055C96.703,222.243,115.899,195.683,136.429,182.651C156.391,169.977,177.102,147.113,197.143,147.756C217.586,148.413,240.582,193.991,257.857,188.041C285.903,178.383,298.564,5.701,318.571,5.853C339.051,6.008,348.393,172.719,379.286,197.677C396.294,211.418,440,203.451,440,203.451"></path></g><g class="recharts-layer recharts-active-dot"><circle cx="318.57142857142856" cy="5.852800000000194" r="4" fill="#f7931a" stroke-width="2" stroke="#fff" class="recharts-dot"></circle></g></svg>