<svg class="hermetica-navbar-logo-svg" id="Capa_1" data-name="Capa 1" xmlns="http://www.w3.org/2000/svg" viewBox="0 0 249.37 39.39" style=""><path fill="#FFFF" class="hermetica-component-navbar-logo" d="M25,0h0a3.58,3.58,0,0,0-3.58,3.58h0V14A3.58,3.58,0,0,0,25,17.59h0A3.58,3.58,0,0,0,28.59,14V3.59A3.59,3.59,0,0,0,25,0Z"></path><path fill="#FFFF" class="hermetica-component-navbar-logo" d="M25,21.8h0a3.58,3.58,0,0,0-3.58,3.58V35.8A3.58,3.58,0,0,0,25,39.39h0a3.59,3.59,0,0,0,3.59-3.59h0V25.38A3.58,3.58,0,0,0,25,21.8Z"></path><path fill="#FFFF" class="hermetica-component-navbar-logo" d="M13.72,5.26H3.59A3.58,3.58,0,0,0,0,8.83H0a3.59,3.59,0,0,0,3.59,3.59H13.72A3.58,3.58,0,0,0,17.3,8.85h0A3.58,3.58,0,0,0,13.72,5.26Z"></path><path fill="#FFFF" class="hermetica-component-navbar-logo" d="M46.42,5.26H36.28A3.58,3.58,0,0,0,32.7,8.84h0a3.58,3.58,0,0,0,3.57,3.59H46.42A3.58,3.58,0,0,0,50,8.85h0a3.58,3.58,0,0,0-3.58-3.58Z"></path><path fill="#FFFF" class="hermetica-component-navbar-logo" d="M41,16.25H36.28a3.58,3.58,0,0,0-3.58,3.58h0a3.58,3.58,0,0,0,3.58,3.58H41a3.58,3.58,0,0,0,3.58-3.58h0A3.58,3.58,0,0,0,41,16.25Z"></path><path fill="#FFFF" class="hermetica-component-navbar-logo" d="M13.72,16.25H9a3.58,3.58,0,0,0-3.58,3.58h0A3.58,3.58,0,0,0,9,23.42h4.69a3.58,3.58,0,0,0,3.58-3.58h0A3.58,3.58,0,0,0,13.72,16.25Z"></path><path fill="#FFFF" class="hermetica-component-navbar-logo" d="M13.72,27.06h0a3.58,3.58,0,0,0-3.59,3.57h0a3.59,3.59,0,0,0,3.59,3.59h0a3.58,3.58,0,0,0,3.58-3.58h0A3.58,3.58,0,0,0,13.72,27.06Z"></path><path fill="#FFFF" class="hermetica-component-navbar-logo" d="M36.28,27.25h0a3.58,3.58,0,0,0-3.58,3.58h0a3.58,3.58,0,0,0,3.57,3.59h0a3.59,3.59,0,0,0,3.59-3.59h0a3.58,3.58,0,0,0-3.58-3.58Z"></path><path fill="#FFFF" class="hermetica-text-navbar-logo" d="M97,9.39h4.16v22.4H97ZM85.44,31.79H81.28V9.39h4.16Zm11.91-9.6H85.09V18.63H97.35ZM114.84,32a10.58,10.58,0,0,1-5-1.12,8.44,8.44,0,0,1-3.3-3.14,8.79,8.79,0,0,1-1.15-4.51,8.88,8.88,0,0,1,1.12-4.51,8.18,8.18,0,0,1,3.13-3.1,9.25,9.25,0,0,1,4.58-1.12,9,9,0,0,1,4.45,1.08,8,8,0,0,1,3.07,3.08,9.27,9.27,0,0,1,1.12,4.67v.57c0,.2,0,.41,0,.61H108.57V21.87h12.12l-1.56.83a4.88,4.88,0,0,0-.61-2.59,4.51,4.51,0,0,0-1.76-1.76,4.86,4.86,0,0,0-2.53-.64,5.11,5.11,0,0,0-2.59.64,4.65,4.65,0,0,0-1.73,1.79,5.55,5.55,0,0,0-.61,2.65v.64a5.21,5.21,0,0,0,.7,2.72A4.76,4.76,0,0,0,112,28a6.5,6.5,0,0,0,2.94.64,7.19,7.19,0,0,0,2.6-.45,5.52,5.52,0,0,0,2-1.41l2.15,2.47a7.75,7.75,0,0,1-2.91,2.08A10.61,10.61,0,0,1,114.84,32Zm11.87-.22V14.7h3.81v4.7l-.45-1.4a5.53,5.53,0,0,1,2.4-2.63,8.56,8.56,0,0,1,4.13-.89v3.8a2,2,0,0,0-.48-.06h-.45a4.87,4.87,0,0,0-3.61,1.34,5.28,5.28,0,0,0-1.35,3.94v8.29ZM161.56,14.5a7.82,7.82,0,0,1,3.62.8,5.69,5.69,0,0,1,2.49,2.46,8.69,8.69,0,0,1,.9,4.22v9.8h-4V22.51a5,5,0,0,0-1-3.4A3.62,3.62,0,0,0,160.73,18a4.78,4.78,0,0,0-2.34.58,3.94,3.94,0,0,0-1.56,1.7,6.3,6.3,0,0,0-.55,2.84V31.8h-4V22.51a5,5,0,0,0-1-3.4A3.62,3.62,0,0,0,148.44,18a4.74,4.74,0,0,0-2.33.58,4,4,0,0,0-1.57,1.7,6.58,6.58,0,0,0-.55,2.84V31.8h-4V14.7h3.81v4.54l-.67-1.34a5.87,5.87,0,0,1,2.5-2.53,8,8,0,0,1,3.77-.86,7.22,7.22,0,0,1,4.16,1.18,5.64,5.64,0,0,1,2.37,3.58l-1.57-.54a6.62,6.62,0,0,1,2.75-3.07,8.48,8.48,0,0,1,4.45-1.15ZM181.75,32a10.58,10.58,0,0,1-5-1.12,8.49,8.49,0,0,1-3.29-3.14,8.79,8.79,0,0,1-1.15-4.51,8.88,8.88,0,0,1,1.12-4.51,8.18,8.18,0,0,1,3.13-3.1,9.25,9.25,0,0,1,4.58-1.12,9.1,9.1,0,0,1,4.45,1.08,8,8,0,0,1,3.07,3.08,9.37,9.37,0,0,1,1.12,4.67v.57c0,.2,0,.41,0,.61H175.47V21.87H187.6l-1.6.83a5,5,0,0,0-.6-2.59,4.65,4.65,0,0,0-1.76-1.76,4.86,4.86,0,0,0-2.53-.64,5.11,5.11,0,0,0-2.59.64,4.51,4.51,0,0,0-1.73,1.79,5.32,5.32,0,0,0-.61,2.65v.64a5.21,5.21,0,0,0,.7,2.72,4.71,4.71,0,0,0,2,1.83,6.5,6.5,0,0,0,2.94.64,7.17,7.17,0,0,0,2.59-.45,5.64,5.64,0,0,0,2-1.41l2.15,2.47a7.75,7.75,0,0,1-2.92,2.08A10.34,10.34,0,0,1,181.75,32Zm18.3,0a6.11,6.11,0,0,1-4.35-1.44,5.74,5.74,0,0,1-1.54-4.32V10.92h4V26.15a2.76,2.76,0,0,0,.61,1.89,2.3,2.3,0,0,0,1.76.67,3.53,3.53,0,0,0,2.24-.7l1.12,2.85a4.69,4.69,0,0,1-1.73.86A7.94,7.94,0,0,1,200.05,32Zm-8.7-14V14.8h11.39V18Zm15.83,13.76V14.7h4V31.79Zm2-19.91a2.56,2.56,0,0,1-1.86-.7,2.32,2.32,0,0,1-.7-1.7,2.21,2.21,0,0,1,.7-1.69,2.8,2.8,0,0,1,3.68,0,2.11,2.11,0,0,1,.74,1.64,2.41,2.41,0,0,1-2.34,2.49h-.22ZM224.27,32a10,10,0,0,1-4.8-1.12A8.53,8.53,0,0,1,215,23.24a8.51,8.51,0,0,1,1.19-4.51,8.31,8.31,0,0,1,3.26-3.1,10,10,0,0,1,4.8-1.12,9.07,9.07,0,0,1,4.39,1,6.57,6.57,0,0,1,2.91,2.94l-3.07,1.8a4.85,4.85,0,0,0-4.26-2.37,5.59,5.59,0,0,0-2.66.64,4.46,4.46,0,0,0-1.85,1.85,5.65,5.65,0,0,0-.67,2.85,5.79,5.79,0,0,0,.67,2.88,4.62,4.62,0,0,0,1.87,1.9,5.59,5.59,0,0,0,2.66.64,5.12,5.12,0,0,0,2.37-.58,5,5,0,0,0,1.89-1.79L231.57,28a7,7,0,0,1-2.91,3A9.07,9.07,0,0,1,224.27,32Zm21.28-.22V28.33l-.22-.74v-6a3.44,3.44,0,0,0-1.06-2.72,4.52,4.52,0,0,0-3.2-1,9.17,9.17,0,0,0-2.84.45,7.15,7.15,0,0,0-2.34,1.25l-1.57-2.91a9.34,9.34,0,0,1,3.27-1.57,14.61,14.61,0,0,1,4-.54,8.29,8.29,0,0,1,5.73,1.79c1.37,1.17,2.05,3,2.05,5.47v10Zm-5.37.22a8.08,8.08,0,0,1-3.36-.64,5.6,5.6,0,0,1-2.24-1.82,4.82,4.82,0,0,1-.77-2.66,5,5,0,0,1,.67-2.59,4.8,4.8,0,0,1,2.27-1.83,10.91,10.91,0,0,1,4.16-.67h5v2.66H241.2a4.11,4.11,0,0,0-2.75.67,2.07,2.07,0,0,0-.7,1.6,2,2,0,0,0,.86,1.73,4,4,0,0,0,2.4.64,5.22,5.22,0,0,0,2.62-.67,3.76,3.76,0,0,0,1.7-2l.67,2.4a4.46,4.46,0,0,1-2.08,2.34,7.47,7.47,0,0,1-3.74.84Z" style=""></path></svg>